<svg viewBox="0 0 200 200" xmlns="http://www.w3.org/2000/svg">
  <path d="M45,40 C65,25 95,20 120,35 C135,45 140,65 135,80 C130,95 115,100 100,95 C85,90 80,75 85,65 C90,55 100,50 110,55 C120,60 125,75 120,85 C115,95 105,100 95,95 C85,90 80,75 85,65 C90,55 105,50 120,60 C140,75 150,95 145,115 C140,135 120,150 95,145 C70,140 50,120 50,95 C50,70 70,50 95,45 C120,40 150,45 170,70 C190,95 195,130 180,160 C165,190 135,200 105,185 C75,170 55,140 60,105 C65,70 90,45 125,40 C160,35 195,55 175,100" 
    fill="#FF5722" stroke="none" />
  <path d="M155,160 C135,175 105,180 80,165 C65,155 60,135 65,120 C70,105 85,100 100,105 C115,110 120,125 115,135 C110,145 100,150 90,145 C80,140 75,125 80,115 C85,105 95,100 105,105 C115,110 120,125 115,135 C110,145 95,150 80,140 C60,125 50,105 55,85 C60,65 80,50 105,55 C130,60 150,80 150,105 C150,130 130,150 105,155 C80,160 50,155 30,130 C10,105 5,70 20,40 C35,10 65,0 95,15 C125,30 145,60 140,95 C135,130 110,155 75,160 C40,165 5,145 25,100" 
    fill="#D84315" stroke="none" />
</svg>
